<svg xmlns="http://www.w3.org/2000/svg" xmlns:xlink="http://www.w3.org/1999/xlink" width="500" zoomAndPan="magnify" viewBox="0 0 375 374.999991" height="500" preserveAspectRatio="xMidYMid meet" version="1.0"><defs><clipPath id="7766464082"><path d="M 66 0 L 309 0 C 345.449219 0 375 29.550781 375 66 L 375 309 C 375 345.449219 345.449219 375 309 375 L 66 375 C 29.550781 375 0 345.449219 0 309 L 0 66 C 0 29.550781 29.550781 0 66 0 Z M 66 0 " clip-rule="nonzero"/></clipPath><clipPath id="8d1464f618"><path d="M 55.078125 145.742188 L 114.980469 145.742188 L 114.980469 327.621094 L 55.078125 327.621094 Z M 55.078125 145.742188 " clip-rule="nonzero"/></clipPath><clipPath id="61e68a12c4"><path d="M 158.238281 248.3125 L 213.78125 248.3125 L 213.78125 327.457031 L 158.238281 327.457031 Z M 158.238281 248.3125 " clip-rule="nonzero"/></clipPath><clipPath id="3f4f2f6f87"><path d="M 55.074219 50.117188 L 316.933594 50.117188 L 316.933594 100.984375 L 55.074219 100.984375 Z M 55.074219 50.117188 " clip-rule="nonzero"/></clipPath><clipPath id="c62ac4332e"><path d="M 158.238281 77.089844 L 213.78125 77.089844 L 213.78125 208.578125 L 158.238281 208.578125 Z M 158.238281 77.089844 " clip-rule="nonzero"/></clipPath><clipPath id="df76dc43d2"><path d="M 257.039062 145.742188 L 316.941406 145.742188 L 316.941406 327.621094 L 257.039062 327.621094 Z M 257.039062 145.742188 " clip-rule="nonzero"/></clipPath></defs><g clip-path="url(#7766464082)"><rect x="-37.5" width="450" fill="#01b72f" y="-37.499999" height="449.999989" fill-opacity="1"/></g><g clip-path="url(#8d1464f618)"><path fill="#ffffff" d="M 55.078125 145.742188 L 114.980469 145.742188 L 114.980469 327.550781 L 55.078125 327.550781 Z M 55.078125 145.742188 " fill-opacity="1" fill-rule="nonzero"/></g><g clip-path="url(#61e68a12c4)"><path fill="#ffffff" d="M 158.238281 248.3125 L 213.78125 248.3125 L 213.78125 327.503906 L 158.238281 327.503906 Z M 158.238281 248.3125 " fill-opacity="1" fill-rule="nonzero"/></g><g clip-path="url(#3f4f2f6f87)"><path fill="#ffffff" d="M 316.933594 50.117188 L 316.933594 100.984375 L 55.050781 100.984375 L 55.050781 50.117188 Z M 316.933594 50.117188 " fill-opacity="1" fill-rule="nonzero"/></g><g clip-path="url(#c62ac4332e)"><path fill="#ffffff" d="M 158.238281 77.089844 L 213.78125 77.089844 L 213.78125 208.566406 L 158.238281 208.566406 Z M 158.238281 77.089844 " fill-opacity="1" fill-rule="nonzero"/></g><g clip-path="url(#df76dc43d2)"><path fill="#ffffff" d="M 257.039062 145.742188 L 316.941406 145.742188 L 316.941406 327.550781 L 257.039062 327.550781 Z M 257.039062 145.742188 " fill-opacity="1" fill-rule="nonzero"/></g></svg>