<svg xmlns="http://www.w3.org/2000/svg" xmlns:xlink="http://www.w3.org/1999/xlink" width="500" zoomAndPan="magnify" viewBox="0 0 375 374.999991" height="500" preserveAspectRatio="xMidYMid meet" version="1.0"><defs><clipPath id="7fb01488b3"><path d="M 124.875 170 L 208 170 L 208 262.5 L 124.875 262.5 Z M 124.875 170 " clip-rule="nonzero"/></clipPath><clipPath id="32c46749ef"><path d="M 167 169 L 250.125 169 L 250.125 262 L 167 262 Z M 167 169 " clip-rule="nonzero"/></clipPath><clipPath id="6d13200d5c"><path d="M 139 112.5 L 236 112.5 L 236 209 L 139 209 Z M 139 112.5 " clip-rule="nonzero"/></clipPath><clipPath id="af5d4a7172"><path d="M 37.5 150 L 232 150 L 232 367.507812 L 37.5 367.507812 Z M 37.5 150 " clip-rule="nonzero"/></clipPath><clipPath id="0b9e6927b0"><path d="M 72 13.507812 L 299 13.507812 L 299 240 L 72 240 Z M 72 13.507812 " clip-rule="nonzero"/></clipPath></defs><g clip-path="url(#7fb01488b3)"><path fill="#db2f14" d="M 158.03125 170.480469 L 207.039062 194.300781 L 173.890625 262.5 L 158.964844 230.230469 L 124.882812 238.679688 L 158.03125 170.480469 " fill-opacity="1" fill-rule="evenodd"/></g><path fill="#ff430e" d="M 165.207031 174.636719 L 199.375 190.585938 L 174.335938 242.980469 L 164.644531 219.871094 L 139.558594 226.667969 L 165.207031 174.636719 " fill-opacity="1" fill-rule="evenodd"/><g clip-path="url(#32c46749ef)"><path fill="#db2f14" d="M 216.726562 169.414062 L 167.800781 193.414062 L 201.199219 261.492188 L 216.007812 229.171875 L 250.121094 237.492188 L 216.726562 169.414062 " fill-opacity="1" fill-rule="evenodd"/></g><path fill="#ff430e" d="M 209.5625 173.601562 L 175.457031 189.675781 L 200.683594 241.976562 L 210.289062 218.832031 L 235.402344 225.535156 L 209.5625 173.601562 " fill-opacity="1" fill-rule="evenodd"/><g clip-path="url(#6d13200d5c)"><path fill="#ffc50d" d="M 187.503906 112.503906 C 213.984375 112.503906 235.484375 134.003906 235.484375 160.484375 C 235.484375 186.96875 213.984375 208.46875 187.503906 208.46875 C 161.019531 208.46875 139.519531 186.96875 139.519531 160.484375 C 139.519531 134.003906 161.019531 112.503906 187.503906 112.503906 " fill-opacity="1" fill-rule="evenodd"/></g><path fill="#f59f0a" d="M 187.503906 122.835938 C 207.925781 122.835938 224.507812 139.707031 224.507812 160.484375 C 224.507812 181.265625 207.925781 198.136719 187.503906 198.136719 C 167.078125 198.136719 150.496094 181.265625 150.496094 160.484375 C 150.496094 139.707031 167.078125 122.835938 187.503906 122.835938 " fill-opacity="1" fill-rule="evenodd"/><path fill="#faf29f" d="M 156.632812 138.714844 C 156.6875 138.554688 156.847656 138.445312 157.027344 138.445312 C 157.210938 138.445312 157.371094 138.554688 157.425781 138.714844 L 158.953125 143.277344 L 163.894531 144.6875 C 164.070312 144.738281 164.1875 144.886719 164.1875 145.054688 C 164.1875 145.222656 164.070312 145.371094 163.894531 145.421875 L 158.953125 146.832031 L 157.425781 151.394531 C 157.371094 151.554688 157.210938 151.664062 157.027344 151.664062 C 156.847656 151.664062 156.6875 151.554688 156.632812 151.394531 L 155.105469 146.832031 L 150.160156 145.421875 C 149.988281 145.371094 149.867188 145.222656 149.867188 145.054688 C 149.867188 144.886719 149.988281 144.738281 150.160156 144.6875 L 155.105469 143.277344 L 156.632812 138.714844 " fill-opacity="1" fill-rule="evenodd"/><path fill="#faf29f" d="M 217.265625 175.429688 C 217.320312 175.269531 217.484375 175.15625 217.667969 175.15625 C 217.855469 175.15625 218.015625 175.269531 218.070312 175.429688 L 219.621094 180.0625 L 224.636719 181.492188 C 224.816406 181.542969 224.933594 181.695312 224.933594 181.863281 C 224.933594 182.035156 224.816406 182.1875 224.636719 182.238281 L 219.621094 183.667969 L 218.070312 188.300781 C 218.015625 188.460938 217.855469 188.574219 217.667969 188.574219 C 217.484375 188.574219 217.320312 188.460938 217.265625 188.300781 L 215.714844 183.667969 L 210.699219 182.238281 C 210.523438 182.1875 210.402344 182.035156 210.402344 181.863281 C 210.402344 181.695312 210.523438 181.542969 210.699219 181.492188 L 215.714844 180.0625 L 217.265625 175.429688 " fill-opacity="1" fill-rule="evenodd"/><path fill="#faf29f" d="M 149.46875 148.097656 C 149.503906 147.988281 149.613281 147.914062 149.734375 147.914062 C 149.855469 147.914062 149.964844 147.988281 150 148.097656 L 151.023438 151.160156 L 154.34375 152.105469 C 154.460938 152.140625 154.539062 152.238281 154.539062 152.351562 C 154.539062 152.464844 154.460938 152.5625 154.34375 152.597656 L 151.023438 153.542969 L 150 156.605469 C 149.964844 156.714844 149.855469 156.789062 149.734375 156.789062 C 149.613281 156.789062 149.503906 156.714844 149.46875 156.605469 L 148.441406 153.542969 L 145.125 152.597656 C 145.007812 152.5625 144.929688 152.464844 144.929688 152.351562 C 144.929688 152.238281 145.007812 152.140625 145.125 152.105469 L 148.441406 151.160156 L 149.46875 148.097656 " fill-opacity="1" fill-rule="evenodd"/><path fill="#faf29f" d="M 224.429688 167.804688 C 224.46875 167.6875 224.585938 167.605469 224.71875 167.605469 C 224.855469 167.605469 224.972656 167.6875 225.011719 167.804688 L 226.136719 171.164062 L 229.773438 172.199219 C 229.902344 172.238281 229.988281 172.347656 229.988281 172.46875 C 229.988281 172.59375 229.902344 172.703125 229.773438 172.738281 L 226.136719 173.777344 L 225.011719 177.136719 C 224.972656 177.253906 224.855469 177.335938 224.71875 177.335938 C 224.585938 177.335938 224.46875 177.253906 224.429688 177.136719 L 223.304688 173.777344 L 219.667969 172.738281 C 219.539062 172.703125 219.453125 172.59375 219.453125 172.46875 C 219.453125 172.347656 219.539062 172.238281 219.667969 172.199219 L 223.304688 171.164062 L 224.429688 167.804688 " fill-opacity="1" fill-rule="evenodd"/><path fill="#faf29f" d="M 184.101562 176.722656 C 184.101562 179.933594 186.761719 181.640625 189.550781 181.621094 C 192.328125 181.601562 194.972656 179.839844 194.972656 176.722656 L 194.972656 145.789062 C 194.972656 143.03125 193.976562 141.355469 192.714844 140.492188 C 191.371094 139.570312 189.554688 139.445312 187.652344 140.257812 C 187.65625 140.257812 179.941406 143.101562 179.941406 143.101562 C 177.746094 143.835938 176.617188 145.269531 176.199219 146.769531 C 175.199219 150.359375 178.496094 154.742188 183.132812 153.238281 C 183.171875 153.226562 183.207031 153.210938 183.246094 153.195312 L 184.101562 152.851562 L 184.101562 176.722656 " fill-opacity="1" fill-rule="nonzero"/><g clip-path="url(#af5d4a7172)"><path fill="#db2f14" d="M 115.730469 150.308594 L 231.359375 206.523438 L 153.15625 367.472656 L 117.9375 291.320312 L 37.527344 311.253906 L 115.730469 150.308594 " fill-opacity="1" fill-rule="evenodd"/></g><path fill="#ff430e" d="M 132.664062 160.121094 L 213.269531 197.761719 L 154.199219 321.410156 L 131.335938 266.871094 L 72.148438 282.914062 L 132.664062 160.121094 " fill-opacity="1" fill-rule="evenodd"/><path fill="#db2f14" d="M 254.207031 147.796875 L 138.789062 204.433594 L 217.578125 365.097656 L 252.519531 288.820312 L 333 308.457031 L 254.207031 147.796875 " fill-opacity="1" fill-rule="evenodd"/><path fill="#ff430e" d="M 237.3125 157.671875 L 156.84375 195.609375 L 216.367188 319.039062 L 239.03125 264.417969 L 298.277344 280.242188 L 237.3125 157.671875 " fill-opacity="1" fill-rule="evenodd"/><g clip-path="url(#0b9e6927b0)"><path fill="#ffc50d" d="M 185.265625 13.484375 C 247.742188 13.484375 298.46875 64.226562 298.46875 126.726562 C 298.46875 189.222656 247.742188 239.964844 185.265625 239.964844 C 122.785156 239.964844 72.058594 189.222656 72.058594 126.726562 C 72.058594 64.226562 122.785156 13.484375 185.265625 13.484375 " fill-opacity="1" fill-rule="evenodd"/></g><path fill="#f59f0a" d="M 185.265625 37.867188 C 233.453125 37.867188 272.574219 77.683594 272.574219 126.726562 C 272.574219 175.765625 233.453125 215.582031 185.265625 215.582031 C 137.074219 215.582031 97.953125 175.765625 97.953125 126.726562 C 97.953125 77.683594 137.074219 37.867188 185.265625 37.867188 " fill-opacity="1" fill-rule="evenodd"/><path fill="#faf29f" d="M 178.578125 75.933594 C 179.566406 73.085938 182.25 71.179688 185.265625 71.179688 C 188.277344 71.179688 190.960938 73.085938 191.949219 75.933594 L 202.296875 105.699219 L 233.789062 106.339844 C 236.800781 106.402344 239.445312 108.367188 240.375 111.234375 C 241.304688 114.101562 240.324219 117.242188 237.921875 119.066406 L 212.820312 138.101562 L 221.941406 168.261719 C 222.8125 171.144531 221.761719 174.269531 219.324219 176.039062 C 216.886719 177.8125 213.59375 177.847656 211.121094 176.125 L 185.265625 158.128906 L 159.40625 176.125 C 156.933594 177.847656 153.640625 177.8125 151.203125 176.039062 C 148.765625 174.269531 147.714844 171.144531 148.589844 168.261719 L 157.710938 138.101562 L 132.605469 119.066406 C 130.207031 117.242188 129.222656 114.101562 130.152344 111.234375 C 131.082031 108.367188 133.726562 106.402344 136.738281 106.339844 L 168.234375 105.699219 L 178.578125 75.933594 " fill-opacity="1" fill-rule="evenodd"/><path fill="#faf29f" d="M 111.421875 75.339844 C 111.546875 74.960938 111.925781 74.703125 112.355469 74.703125 C 112.789062 74.703125 113.164062 74.960938 113.292969 75.339844 L 116.894531 86.113281 L 128.558594 89.441406 C 128.96875 89.558594 129.25 89.910156 129.25 90.304688 C 129.25 90.699219 128.96875 91.050781 128.558594 91.171875 L 116.894531 94.496094 L 113.292969 105.269531 C 113.164062 105.648438 112.789062 105.90625 112.355469 105.90625 C 111.925781 105.90625 111.546875 105.648438 111.421875 105.269531 L 107.820312 94.496094 L 96.152344 91.171875 C 95.746094 91.050781 95.464844 90.699219 95.464844 90.304688 C 95.464844 89.910156 95.746094 89.558594 96.152344 89.441406 L 107.820312 86.113281 L 111.421875 75.339844 " fill-opacity="1" fill-rule="evenodd"/><path fill="#faf29f" d="M 254.472656 161.992188 C 254.601562 161.609375 254.988281 161.347656 255.425781 161.347656 C 255.859375 161.347656 256.246094 161.609375 256.375 161.992188 L 260.03125 172.925781 L 271.863281 176.300781 C 272.28125 176.417969 272.566406 176.777344 272.566406 177.175781 C 272.566406 177.578125 272.28125 177.9375 271.863281 178.054688 L 260.03125 181.429688 L 256.375 192.363281 C 256.246094 192.75 255.859375 193.011719 255.425781 193.011719 C 254.988281 193.011719 254.601562 192.75 254.472656 192.363281 L 250.820312 181.429688 L 238.984375 178.054688 C 238.566406 177.9375 238.28125 177.578125 238.28125 177.175781 C 238.28125 176.777344 238.566406 176.417969 238.984375 176.300781 L 250.820312 172.925781 L 254.472656 161.992188 " fill-opacity="1" fill-rule="evenodd"/><path fill="#faf29f" d="M 94.515625 97.484375 C 94.601562 97.230469 94.859375 97.058594 95.144531 97.058594 C 95.433594 97.058594 95.691406 97.230469 95.773438 97.484375 L 98.191406 104.714844 L 106.015625 106.945312 C 106.292969 107.027344 106.480469 107.261719 106.480469 107.527344 C 106.480469 107.792969 106.292969 108.027344 106.015625 108.105469 L 98.191406 110.339844 L 95.773438 117.570312 C 95.691406 117.820312 95.433594 117.996094 95.144531 117.996094 C 94.859375 117.996094 94.601562 117.820312 94.515625 117.570312 L 92.101562 110.339844 L 84.273438 108.105469 C 84 108.027344 83.808594 107.792969 83.808594 107.527344 C 83.808594 107.261719 84 107.027344 84.273438 106.945312 L 92.101562 104.714844 L 94.515625 97.484375 " fill-opacity="1" fill-rule="evenodd"/><path fill="#faf29f" d="M 271.371094 143.996094 C 271.464844 143.714844 271.742188 143.523438 272.058594 143.523438 C 272.375 143.523438 272.65625 143.714844 272.75 143.996094 L 275.398438 151.921875 L 283.980469 154.367188 C 284.285156 154.457031 284.488281 154.714844 284.488281 155.007812 C 284.488281 155.296875 284.285156 155.554688 283.980469 155.644531 L 275.398438 158.09375 L 272.75 166.019531 C 272.65625 166.296875 272.375 166.488281 272.058594 166.488281 C 271.742188 166.488281 271.464844 166.296875 271.371094 166.019531 L 268.71875 158.09375 L 260.136719 155.644531 C 259.835938 155.554688 259.628906 155.296875 259.628906 155.007812 C 259.628906 154.714844 259.835938 154.457031 260.136719 154.367188 L 268.71875 151.921875 L 271.371094 143.996094 " fill-opacity="1" fill-rule="evenodd"/></svg>